<svg width="34" height="33" viewBox="0 0 34 33" fill="none" xmlns="http://www.w3.org/2000/svg">
<g id="Button Home">
<g id="home-icon">
<path id="Vector" d="M12 30.8712H8.66667C4.98477 30.8712 2 27.8864 2 24.2045V13.7172C2 11.386 3.21768 9.22412 5.21132 8.01585L13.5447 2.96535C15.6685 1.67822 18.3315 1.67822 20.4553 2.96535L28.7887 8.01585C30.7823 9.22412 32 11.386 32 13.7172V24.2045C32 27.8864 29.0152 30.8712 25.3333 30.8712H22M12 30.8712V24.2045C12 21.443 14.2385 19.2045 17 19.2045C19.7615 19.2045 22 21.443 22 24.2045V30.8712M12 30.8712H22" stroke="black" stroke-width="3" stroke-linecap="round" stroke-linejoin="round"/>
</g>
</g>
</svg>
