<svg width="29" height="29" viewBox="0 0 29 29" fill="none" xmlns="http://www.w3.org/2000/svg">
<g id="Car" clip-path="url(#clip0_10_576)">
<path id="Vector" d="M25.8876 16.6414V25.3914C25.8876 25.7008 25.7647 25.9976 25.5459 26.2164C25.3271 26.4351 25.0304 26.5581 24.7209 26.5581H23.5543C23.2449 26.5581 22.9481 26.4351 22.7293 26.2164C22.5105 25.9976 22.3876 25.7008 22.3876 25.3914V24.2247H6.05428V25.3914C6.05428 25.7008 5.93136 25.9976 5.71257 26.2164C5.49378 26.4351 5.19703 26.5581 4.88761 26.5581H3.72095C3.41153 26.5581 3.11478 26.4351 2.89599 26.2164C2.6772 25.9976 2.55428 25.7008 2.55428 25.3914V16.6414L1.10411 16.2797C0.851826 16.2165 0.627891 16.0708 0.467879 15.8658C0.307866 15.6608 0.220954 15.4081 0.220947 15.1481L0.220947 14.3081C0.220947 14.1533 0.282405 14.005 0.391802 13.8956C0.501198 13.7862 0.649571 13.7247 0.804281 13.7247H2.99178L5.48611 7.07239C5.65287 6.62753 5.95144 6.24418 6.34193 5.97357C6.73241 5.70296 7.1962 5.558 7.67128 5.55806H20.7706C21.2457 5.558 21.7095 5.70296 22.1 5.97357C22.4904 6.24418 22.789 6.62753 22.9558 7.07239L25.4501 13.7247H27.6376C27.7923 13.7247 27.9407 13.7862 28.0501 13.8956C28.1595 14.005 28.2209 14.1533 28.2209 14.3081V15.1481C28.2209 15.4081 28.134 15.6608 27.974 15.8658C27.814 16.0708 27.5901 16.2165 27.3378 16.2797L25.8876 16.6414ZM4.88761 18.3914V20.7247C4.88761 21.0341 5.01053 21.3309 5.22932 21.5497C5.44812 21.7685 5.74486 21.8914 6.05428 21.8914H9.84011C9.94085 21.8912 10.0398 21.865 10.1274 21.8152C10.215 21.7654 10.2882 21.6938 10.3399 21.6074C10.3916 21.5209 10.42 21.4225 10.4224 21.3218C10.4247 21.2211 10.401 21.1215 10.3534 21.0327C9.41428 19.2711 7.59195 18.3914 4.88761 18.3914ZM23.5543 18.3914C20.8511 18.3914 19.0288 19.2722 18.0873 21.0327C18.0397 21.1216 18.0159 21.2213 18.0184 21.3221C18.0208 21.4229 18.0493 21.5214 18.1012 21.6079C18.153 21.6944 18.2263 21.766 18.3141 21.8156C18.4018 21.8653 18.5009 21.8914 18.6018 21.8914H22.3876C22.697 21.8914 22.9938 21.7685 23.2126 21.5497C23.4314 21.3309 23.5543 21.0341 23.5543 20.7247V18.3914ZM7.22095 7.89139L5.39978 13.3561C5.3414 13.5314 5.32548 13.718 5.35334 13.9007C5.3812 14.0833 5.45205 14.2567 5.56004 14.4066C5.66803 14.5566 5.81009 14.6787 5.97451 14.763C6.13893 14.8472 6.32102 14.8913 6.50578 14.8914H21.9361C22.1209 14.8913 22.303 14.8472 22.4674 14.763C22.6318 14.6787 22.7739 14.5566 22.8819 14.4066C22.9898 14.2567 23.0607 14.0833 23.0886 13.9007C23.1164 13.718 23.1005 13.5314 23.0421 13.3561L21.2209 7.89139H7.22095Z" fill="white"/>
</g>
<defs>
<clipPath id="clip0_10_576">
<rect width="28" height="28" fill="white" transform="translate(0.220947 0.891388)"/>
</clipPath>
</defs>
</svg>
