<svg width="22" height="22" viewBox="0 0 22 22" fill="none" xmlns="http://www.w3.org/2000/svg">
<g id="Password">
<path id="Stroke 1" fill-rule="evenodd" clip-rule="evenodd" d="M9.8126 10.8915C9.8126 11.9902 8.92219 12.8807 7.82341 12.8807C6.72464 12.8807 5.83423 11.9902 5.83423 10.8915C5.83423 9.79269 6.72464 8.90228 7.82341 8.90228H7.82664C8.92434 8.90336 9.8126 9.79376 9.8126 10.8915Z" stroke="white" stroke-width="1.5" stroke-linecap="round" stroke-linejoin="round"/>
<path id="Stroke 3" d="M9.81592 10.8915H16.6019V12.8806" stroke="white" stroke-width="1.5" stroke-linecap="round" stroke-linejoin="round"/>
<path id="Stroke 5" d="M13.5646 12.8806V10.8915" stroke="white" stroke-width="1.5" stroke-linecap="round" stroke-linejoin="round"/>
<path id="Stroke 7" fill-rule="evenodd" clip-rule="evenodd" d="M1.28564 10.8915C1.28564 3.44062 3.76998 0.956284 11.2208 0.956284C18.6717 0.956284 21.156 3.44062 21.156 10.8915C21.156 18.3423 18.6717 20.8267 11.2208 20.8267C3.76998 20.8267 1.28564 18.3423 1.28564 10.8915Z" stroke="white" stroke-width="1.5" stroke-linecap="round" stroke-linejoin="round"/>
</g>
</svg>
