<svg width="45" height="29" viewBox="0 0 45 29" fill="none" xmlns="http://www.w3.org/2000/svg">
<g id="Logo 2">
<path id="Shape" d="M28.591 25.0335H16.4353V3.18758H28.591V25.0335Z" fill="#FF5F00"/>
<path id="Shape_2" d="M17.2149 14.1109C17.2149 9.67935 19.2898 5.73186 22.5209 3.18793C20.1581 1.32769 17.1761 0.217381 13.9352 0.217381C6.26281 0.217381 0.043457 6.43762 0.043457 14.1109C0.043457 21.7842 6.26281 28.0044 13.9352 28.0044C17.1761 28.0044 20.1581 26.8941 22.5209 25.0338C19.2898 22.4899 17.2149 18.5424 17.2149 14.1109Z" fill="#EB001B"/>
<path id="Shape_3" d="M44.9876 14.1109C44.9876 21.7842 38.7683 28.0044 31.0959 28.0044C27.855 28.0044 24.873 26.8941 22.5093 25.0338C25.7413 22.4899 27.8162 18.5424 27.8162 14.1109C27.8162 9.67935 25.7413 5.73186 22.5093 3.18793C24.873 1.32769 27.855 0.217381 31.0959 0.217381C38.7683 0.217381 44.9876 6.43762 44.9876 14.1109Z" fill="#F79E1B"/>
</g>
</svg>
