<svg width="81" height="65" viewBox="0 0 81 65" fill="none" xmlns="http://www.w3.org/2000/svg">
<g id="Pul cekme">
<path id="Rectangle 12" d="M76 3C76 1.34315 77.3431 0 79 0H81V65H79C77.3431 65 76 63.6569 76 62V3Z" fill="#5DC6C9"/>
<g id="kise-icon">
<path id="Vector" d="M27.6667 49.3298H4.33333C2.49238 49.3298 1 47.8375 1 45.9965V30.9965C1 29.1555 2.49238 27.6631 4.33333 27.6631H27.6667C29.5077 27.6631 31 29.1555 31 30.9965V45.9965C31 47.8375 29.5077 49.3298 27.6667 49.3298Z" stroke="black" stroke-width="2"/>
<path id="Vector_2" d="M23.5001 39.3298C23.0399 39.3298 22.6667 38.9566 22.6667 38.4965C22.6667 38.0363 23.0399 37.6631 23.5001 37.6631C23.9602 37.6631 24.3334 38.0363 24.3334 38.4965C24.3334 38.9566 23.9602 39.3298 23.5001 39.3298Z" stroke="black" stroke-width="2" stroke-linecap="round" stroke-linejoin="round"/>
<path id="Vector_3" d="M26 27.6631V25.3352C26 23.1451 23.924 21.5501 21.8078 22.1144L3.47445 27.0033C2.01528 27.3924 1 28.7139 1 30.2241V30.9965" stroke="black" stroke-width="2"/>
</g>
</g>
</svg>
